{"title":"UNTHINKABLE 2010 1080P M2TS AC3","uid":6481943,"size":4280186926,"categoryP":"video","categoryS":"hd___movies","magnet":"?xt=urn:btih:37de654d366a016b9b5d805baed3c69218e74975&amp;dn=UNTHINKABLE+2010+1080P+M2TS+AC3&amp;tr=udp%3A%2F%2Ftracker.openbittorrent.com%3A80&amp;tr=udp%3A%2F%2Fopen.demonii.com%3A1337&amp;tr=udp%3A%2F%2Ftracker.coppersurfer.tk%3A6969&amp;tr=udp%3A%2F%2Fexodus.desync.com%3A6969","seeders":0,"leechers":0,"uploader":"TPBAgri","files":-1,"time":1308559452,"description":"Format : BDAV\nFormat/Info : Blu-ray Video\nFile size : 3.99 GiB\nDuration : 1h 37mn\nOverall bit rate : 5 876 Kbps\nMaximum Overall bit rate : 35.5 Mbps\n\nVideo\nID : 4113 (0x1011)\nMenu ID : 1 (0x1)\nFormat : AVC\nFormat/Info : Advanced Video Codec\nFormat profile : &lt;a class=&quot;__cf_email__&quot; href=&quot;/cdn-cgi/l/email-protection&quot; data-cfemail=&quot;e6ae8f818ea6aad2c8d6&quot;&gt;[email&amp;#160;protected]&lt;/a&gt;&lt;script cf-hash='f9e31' type=&quot;text/javascript&quot;&gt;\n/* &lt;![CDATA[ */!function(){try{var t=&quot;currentScript&quot;in document?document.currentScript:function(){for(var t=document.getElementsByTagName(&quot;script&quot;),e=t.length;e--;)if(t[e].getAttribute(&quot;cf-hash&quot;))return t[e]}();if(t&amp;&amp;t.previousSibling){var e,r,n,i,c=t.previousSibling,a=c.getAttribute(&quot;data-cfemail&quot;);if(a){for(e=&quot;&quot;,r=parseInt(a.substr(0,2),16),n=2;a.length-n;n+=2)i=parseInt(a.substr(n,2),16)^r,e+=String.fromCharCode(i);e=document.createTextNode(e),c.parentNode.replaceChild(e,c)}}}catch(u){}}();/* ]]&gt; */&lt;/script&gt;\nFormat settings, CABAC : Yes\nFormat settings, ReFrames : 3 frames\nFormat settings, GOP : M=2, N=48\nCodec ID : 27\nDuration : 1h 37mn\nBit rate mode : Variable\nBit rate : 4 808 Kbps\nMaximum bit rate : 25.0 Mbps\nWidth : 1 920 pixels\nHeight : 1 080 pixels\nDisplay aspect ratio : 16:9\nFrame rate : 23.976 fps\nColor space : YUV\nChroma subsampling : 4:2:0\nBit depth : 8 bits\nScan type : Progressive\nBits/(Pixel*Frame) : 0.097\nStream size : 3.39 GiB (85%)\nWriting library : x264\n\nAudio\nID : 4352 (0x1100)\nMenu ID : 1 (0x1)\nFormat : AC-3\nFormat/Info : Audio Coding 3\nMode extension : CM (complete main)\nCodec ID : 129\nDuration : 1h 37mn\nBit rate mode : Constant\nBit rate : 640 Kbps\nChannel(s) : 6 channels\nChannel positions : Front: L C R, Side: L R, LFE\nSampling rate : 48.0 KHz\nBit depth : 16 bits\nCompression mode : Lossy\nStream size : 445 MiB (11%)\nLanguage : English","torrent":{"xt":"urn:btih:37de654d366a016b9b5d805baed3c69218e74975","amp;dn":"UNTHINKABLE+2010+1080P+M2TS+AC3","amp;tr":["udp%3A%2F%2Ftracker.openbittorrent.com%3A80","udp%3A%2F%2Fopen.demonii.com%3A1337","udp%3A%2F%2Ftracker.coppersurfer.tk%3A6969","udp%3A%2F%2Fexodus.desync.com%3A6969"],"infoHash":"37de654d366a016b9b5d805baed3c69218e74975","infoHashBuffer":{"type":"Buffer","data":[55,222,101,77,54,106,1,107,155,93,128,91,174,211,198,146,24,231,73,117]},"announce":[],"urlList":[]}}